<svg xmlns="http://www.w3.org/2000/svg" viewBox="0 0 1255.25 246.25">
  <path fill="white" fill-rule="evenodd" stroke="#000" stroke-linecap="round" stroke-width="2" d="M431.75 67.75H465v78.75q0 5.75 1 11.5a20.71 20.71 0 001.73 5.5 17.46 17.46 0 002.77 4.13q2.99 3.3 8.7 3.79a24.22 24.22 0 002.05.08q7 0 13-3T504 160q3.75-5.5 3.75-12.75v-66a.82.82 0 00-.01-.1q-.08-.5-.66-2.93a326.73 326.73 0 00-.08-.34q-.75-3.13-1.38-6.38-.56-2.92-.82-3.62a1.31 1.31 0 00-.05-.13h33.5v92a36.45 36.45 0 00.13 3.23q.4 4.46 2 6.52a6.9 6.9 0 004.69 2.65 10.25 10.25 0 001.43.1 16.96 16.96 0 002.43-.2q2.53-.37 5.93-1.43a67.42 67.42 0 001.14-.37l4.75 17a76.99 76.99 0 01-5.66 2.4q-3.03 1.16-6.47 2.22a46.55 46.55 0 01-11.72 2.09 43.09 43.09 0 01-1.9.04 27.53 27.53 0 01-9.95-1.77 25.9 25.9 0 01-4.05-1.98 16 16 0 01-5.92-6.4q-1.23-2.3-2-5.22a31.93 31.93 0 01-.33-1.38q-8 8.25-18.63 13.25-10.62 5-22.37 5a59.71 59.71 0 01-8.7-.6q-4.49-.66-8.16-2.06a27.05 27.05 0 01-5.51-2.84q-8.13-5.5-11.5-15.38-3.28-9.57-3.38-22.09a99.06 99.06 0 010-.78v-70.5l-2.75-13.5zm-305 1l31.5-3.75q1.75 3.75 2.75 7.88 1 4.12 1.5 8.12a73.34 73.34 0 0111.55-8.45 87.6 87.6 0 016.07-3.3q10.13-5 20.38-5 14.5 0 22.5 5.5a28.8 28.8 0 0110.82 14.14 35.9 35.9 0 01.43 1.23q3.05 9.26 3.24 21.27a101.68 101.68 0 01.01 1.61v84h-30.25v-81a68.32 68.32 0 00-.58-9.01 61.08 61.08 0 00-.3-1.99 17.12 17.12 0 00-1.5-4.78 14.4 14.4 0 00-2.75-3.84q-2.55-2.56-7.33-3.18a25.61 25.61 0 00-3.29-.2q-2.64 0-6.08 1.11a38.99 38.99 0 00-3.04 1.14q-5.38 2.25-10.25 5.38a53.53 53.53 0 00-3.36 2.32q-2.55 1.92-4.27 3.8V192h-30v-89a83.31 83.31 0 00-.09-3.63q-.07-1.67-.2-3.54a178.78 178.78 0 00-.34-3.95q-.62-6.63-2.37-13.13a37.36 37.36 0 00-1.35-4.11q-.8-2.02-1.78-3.63a16.95 16.95 0 00-1.62-2.26zm466.25 109l-5.25 14.5h-15.5q.5-4.25.75-8.38.25-4.12.25-8.12v-162L569.75 0h33.5v60.5q0 7.5-.25 11.38-.2 2.96-.24 4.83a43.65 43.65 0 00-.01 1.04 59.34 59.34 0 018.64-6.11 47.31 47.31 0 017.86-3.64 52.7 52.7 0 0112.51-2.7A64.83 64.83 0 01638 65q12.75 0 22.25 5.75T676.13 86q6.37 9.5 9.5 20.75 3.12 11.25 3.12 22.5a78.15 78.15 0 01-4.72 27.27 74.18 74.18 0 01-2.15 5.23q-6.88 15-20 24.13a50.35 50.35 0 01-20.71 8.23A67.44 67.44 0 01630 195q-11.5 0-20.63-4.13-9.12-4.12-16.37-13.12zm400.25-109L1024.5 65a83.83 83.83 0 011.93 6.17 93.73 93.73 0 01.32 1.2 64.95 64.95 0 011.47 7.4 59.87 59.87 0 01.03.23 32.42 32.42 0 019.21-8.39 42.9 42.9 0 016.41-3.23 61.28 61.28 0 018.6-2.82q5.36-1.31 10.28-1.31a57.14 57.14 0 0111.89 1.18 43.46 43.46 0 0111.61 4.2q10 5.37 16.63 14.62 6.62 9.25 10 20.75 3.37 11.5 3.37 23.5a86.78 86.78 0 01-2.67 21.83 75.9 75.9 0 01-3.83 11.17q-6.5 15-19.5 24t-32.25 9a47.57 47.57 0 01-5.83-.38q-2.97-.37-6.28-1.1a88.39 88.39 0 01-2.27-.52 44.7 44.7 0 01-6.45-2.09q-3.44-1.42-6.16-3.35a26.61 26.61 0 01-.76-.56 49.2 49.2 0 01.42 4.38 62.02 62.02 0 01.08 3.25v38.37l3.5 13.75h-33.75v-143.5a87 87 0 00-.09-3.8q-.09-2.09-.28-4.43a161.23 161.23 0 00-.25-2.9q-.63-6.37-2.25-12.62a42.1 42.1 0 00-1.51-4.7q-.9-2.33-2.03-4.23a22.74 22.74 0 00-.84-1.32zm139 0L1163.5 65a83.83 83.83 0 011.93 6.17 93.73 93.73 0 01.32 1.2 64.95 64.95 0 011.47 7.4 59.87 59.87 0 01.03.23 32.42 32.42 0 019.21-8.39 42.9 42.9 0 016.41-3.23 61.28 61.28 0 018.6-2.82q5.36-1.31 10.28-1.31a57.14 57.14 0 0111.89 1.18 43.46 43.46 0 0111.61 4.2q10 5.37 16.63 14.62 6.62 9.25 10 20.75 3.37 11.5 3.37 23.5a86.78 86.78 0 01-2.67 21.83 75.9 75.9 0 01-3.83 11.17q-6.5 15-19.5 24t-32.25 9a47.57 47.57 0 01-5.83-.38q-2.97-.37-6.28-1.1a88.39 88.39 0 01-2.27-.52 44.7 44.7 0 01-6.45-2.09q-3.44-1.42-6.16-3.35a26.61 26.61 0 01-.76-.56 49.2 49.2 0 01.42 4.38 62.02 62.02 0 01.08 3.25v38.37l3.5 13.75h-33.75v-143.5a87 87 0 00-.09-3.8q-.09-2.09-.28-4.43a161.23 161.23 0 00-.26-2.9q-.62-6.37-2.24-12.62a42.1 42.1 0 00-1.51-4.7q-.9-2.33-2.03-4.23a22.74 22.74 0 00-.84-1.32zm-1034.5 36.5V160q0 5.34 1.22 8.1a6.16 6.16 0 001.03 1.65q2.25 2.5 5.75 2.5 2.5 0 4.88-.5a28.25 28.25 0 003.47-.98 33.12 33.12 0 001.4-.52l4.75 17a52.16 52.16 0 01-7.46 3.31 65.17 65.17 0 01-5.04 1.56 60.52 60.52 0 01-5.89 1.29q-3.17.52-6.04.58a36.1 36.1 0 01-.82.01q-6.78 0-11.58-2.13a18.52 18.52 0 01-2.92-1.62 15.8 15.8 0 01-4.5-4.82q-1.33-2.14-2.29-4.9a35.5 35.5 0 01-.96-3.28 45.01 45.01 0 01-6.83 7.63 34.27 34.27 0 01-9.55 6 50.81 50.81 0 01-13.32 3.41 64.46 64.46 0 01-7.8.46 41.87 41.87 0 01-13.66-2.16 36.66 36.66 0 01-11.21-6.22Q0 178 0 162.75a56.92 56.92 0 010-.21q.05-12.57 5.65-20.9a28.73 28.73 0 01.72-1.01Q12.75 132 23 127.38a82.08 82.08 0 0119.91-6.03 92.25 92.25 0 012.22-.35q11.87-1.75 22.62-1.75V103q0-8.55-3.11-12.53a9.02 9.02 0 00-1.14-1.22 12.55 12.55 0 00-3.93-2.28q-3.62-1.37-9.02-1.46a46.45 46.45 0 00-.8-.01 32.55 32.55 0 00-12.15 2.43 41.51 41.51 0 00-4.85 2.32 138.3 138.3 0 00-8.7 5.27 106.82 106.82 0 00-6.3 4.48L5.5 80.25q11.25-7.75 24.13-11.63Q42.5 64.75 56 64.75q20 0 30.88 10.13a31.93 31.93 0 018.64 14.1q1.6 5.1 2.05 11.27a68.57 68.57 0 01.18 5zm867.75 0V160q0 5.34 1.22 8.1a6.16 6.16 0 001.03 1.65q2.25 2.5 5.75 2.5 2.5 0 4.88-.5a28.25 28.25 0 003.47-.98 33.12 33.12 0 001.4-.52l4.75 17a52.16 52.16 0 01-7.46 3.31 65.17 65.17 0 01-5.04 1.56 60.52 60.52 0 01-5.89 1.29q-3.17.52-6.04.58a36.1 36.1 0 01-.82.01q-6.78 0-11.58-2.13a18.52 18.52 0 01-2.92-1.62 15.8 15.8 0 01-4.5-4.82q-1.33-2.14-2.29-4.9a35.5 35.5 0 01-.96-3.28 45.01 45.01 0 01-6.83 7.63 34.27 34.27 0 01-9.54 6 50.81 50.81 0 01-13.33 3.41 64.46 64.46 0 01-7.8.46 41.87 41.87 0 01-13.66-2.16 36.66 36.66 0 01-11.22-6.22q-10.37-8.37-10.37-23.62a56.92 56.92 0 010-.21q.05-12.57 5.65-20.9a28.73 28.73 0 01.73-1.01q6.37-8.63 16.62-13.25a82.08 82.08 0 0119.91-6.03 92.25 92.25 0 012.22-.35q11.87-1.75 22.62-1.75V103q0-8.55-3.11-12.53a9.02 9.02 0 00-1.14-1.22 12.55 12.55 0 00-3.93-2.28q-3.62-1.37-9.02-1.46a46.45 46.45 0 00-.8-.01 32.55 32.55 0 00-12.15 2.43 41.51 41.51 0 00-4.85 2.32 138.3 138.3 0 00-8.7 5.27 106.82 106.82 0 00-6.3 4.48l-12.25-19.75q11.25-7.75 24.13-11.63 12.87-3.87 26.37-3.87 20 0 30.88 10.13a31.93 31.93 0 018.64 14.1q1.6 5.1 2.05 11.27a68.57 68.57 0 01.18 5zm-553.25-33l-10.5 21a36.98 36.98 0 00-9.2-5.34 43.24 43.24 0 00-2.43-.91 41.6 41.6 0 00-10.27-2.14 37.89 37.89 0 00-2.85-.11q-6.25 0-11.63 3a10 10 0 00-5.11 7.28A16.23 16.23 0 00360 98a13.52 13.52 0 00.68 4.38 11.13 11.13 0 003.94 5.37q4.17 3.15 10.26 5.7a69.48 69.48 0 001.37.55 313.29 313.29 0 019.18 3.61 361.7 361.7 0 013.32 1.39q6.5 2.75 12.25 6.75a29.14 29.14 0 018.69 9.6 34.24 34.24 0 01.56 1.03 27.82 27.82 0 012.45 6.74q.72 3.11.95 6.73a54.83 54.83 0 01.1 3.4 41.9 41.9 0 01-1.63 11.91 34.67 34.67 0 01-5.37 10.84q-7 9.5-18.13 14.5-11.12 5-23.62 5a76.08 76.08 0 01-12.36-1.06 97.5 97.5 0 01-9.01-1.94 101.88 101.88 0 01-11.35-3.68 79.22 79.22 0 01-8.78-4.07l10.75-20.5q6.5 3.75 13.5 6.88 7 3.12 14.75 3.12a24.52 24.52 0 007.44-1.1 21.3 21.3 0 005.69-2.78 12.55 12.55 0 005.27-8.25 19.96 19.96 0 00.35-3.87 17.11 17.11 0 00-.4-3.82 11.67 11.67 0 00-2.48-5.06 22.4 22.4 0 00-3.82-3.52 30.14 30.14 0 00-3.8-2.35 71.67 71.67 0 00-6.67-3.07 86.66 86.66 0 00-3.83-1.43q-7.75-3-15.25-6.63-7.5-3.62-12.5-10.37a23.35 23.35 0 01-3.59-7.43q-1.41-4.83-1.41-11.07a40.47 40.47 0 011.18-10 30 30 0 015.94-11.88 43.17 43.17 0 0117.79-12.74 50.56 50.56 0 01.34-.13q11-4.25 22.75-4.25a93.47 93.47 0 0110.28.6 119.47 119.47 0 018.6 1.28 72.6 72.6 0 0110.08 2.59 56.48 56.48 0 017.79 3.28zm380.25 0l-10.5 21a36.98 36.98 0 00-9.2-5.34 43.24 43.24 0 00-2.42-.91 41.6 41.6 0 00-10.28-2.14 37.89 37.89 0 00-2.85-.11q-6.25 0-11.63 3a10 10 0 00-5.11 7.28 16.23 16.23 0 00-.26 2.97 13.52 13.52 0 00.68 4.38 11.13 11.13 0 003.95 5.37q4.16 3.15 10.25 5.7a69.48 69.48 0 001.37.55 313.29 313.29 0 019.18 3.61A361.7 361.7 0 01769 119q6.5 2.75 12.25 6.75a29.14 29.14 0 018.69 9.6 34.24 34.24 0 01.56 1.03 27.82 27.82 0 012.45 6.74q.72 3.11.95 6.73a54.83 54.83 0 01.1 3.4 41.9 41.9 0 01-1.63 11.91A34.67 34.67 0 01787 176q-7 9.5-18.13 14.5-11.12 5-23.62 5a76.08 76.08 0 01-12.36-1.06 97.5 97.5 0 01-9.01-1.94 101.88 101.88 0 01-11.35-3.68 79.22 79.22 0 01-8.78-4.07l10.75-20.5q6.5 3.75 13.5 6.88 7 3.12 14.75 3.12a24.52 24.52 0 007.44-1.1 21.3 21.3 0 005.68-2.78 12.55 12.55 0 005.28-8.25 19.96 19.96 0 00.35-3.87 17.11 17.11 0 00-.4-3.82 11.67 11.67 0 00-2.48-5.06 22.4 22.4 0 00-3.82-3.52 30.14 30.14 0 00-3.8-2.35 71.67 71.67 0 00-6.66-3.07 86.66 86.66 0 00-3.84-1.43q-7.75-3-15.25-6.63-7.5-3.62-12.5-10.37a23.35 23.35 0 01-3.59-7.43q-1.41-4.83-1.41-11.07a40.47 40.47 0 011.18-10 30 30 0 015.95-11.88 43.17 43.17 0 0117.78-12.74 50.56 50.56 0 01.34-.13q11-4.25 22.75-4.25a93.47 93.47 0 0110.28.6 119.47 119.47 0 018.6 1.28 72.6 72.6 0 0110.08 2.59 56.48 56.48 0 017.79 3.28zm-526.25-4.5H299V192h-30V81.25l-2.75-13.5zm764.5 31.75v40.75q0 8.25 2.13 15.88a27.19 27.19 0 003.26 7.43 23.48 23.48 0 004.23 4.94 17.67 17.67 0 006.71 3.64q2.66.8 5.85 1.02a36.53 36.53 0 002.57.09 26.3 26.3 0 006.17-.69 19.04 19.04 0 007.45-3.56 30.03 30.03 0 007.5-8.85 35.88 35.88 0 001.13-2.15q3.25-6.75 4.5-14.25t1.25-14a74.5 74.5 0 00-.62-9.4 89.68 89.68 0 00-.76-4.85q-1.37-7.5-4.74-14.13a30.65 30.65 0 00-6.33-8.53 28.74 28.74 0 00-2.67-2.22q-5.63-4.12-13.88-4.12-6.75 0-13.38 3.63a30.24 30.24 0 00-6.85 5.05 26.43 26.43 0 00-3.52 4.32zm139 0v40.75q0 8.25 2.13 15.88a27.19 27.19 0 003.26 7.43 23.48 23.48 0 004.23 4.94 17.67 17.67 0 006.71 3.64q2.66.8 5.85 1.02a36.53 36.53 0 002.57.09 26.3 26.3 0 006.17-.69 19.04 19.04 0 007.45-3.56 30.03 30.03 0 007.5-8.85 35.88 35.88 0 001.13-2.15q3.25-6.75 4.5-14.25t1.25-14a74.5 74.5 0 00-.62-9.4 89.68 89.68 0 00-.76-4.85q-1.37-7.5-4.74-14.13a30.65 30.65 0 00-6.33-8.53 28.74 28.74 0 00-2.67-2.22q-5.63-4.12-13.88-4.12-6.75 0-13.38 3.63a30.24 30.24 0 00-6.85 5.05 26.43 26.43 0 00-3.52 4.32zm-566.5.5v40.75q0 8.25 2.38 16 2.37 7.75 8.12 12.75 5.75 5 15.5 5a24.05 24.05 0 006.15-.75 18.19 18.19 0 007.1-3.63 29.1 29.1 0 007.05-8.75 34.96 34.96 0 001.2-2.5q3-6.87 4.13-14.37a107.78 107.78 0 00.84-7.19 80.6 80.6 0 00.28-6.56 60.53 60.53 0 00-.45-7.17 80.09 80.09 0 00-1.05-6.45q-1.5-7.38-4.75-14a32.14 32.14 0 00-5.62-8.15 29.4 29.4 0 00-3-2.73Q635.75 88 627.75 88a28.06 28.06 0 00-13.3 3.4 32.72 32.72 0 00-.2.1 42.25 42.25 0 00-7.95 5.49 37.14 37.14 0 00-3.05 3.01zm240.15 89.23a18.68 18.68 0 005.6-13.48 23.46 23.46 0 000-.02 18.97 18.97 0 00-5.63-13.73q-5.62-5.75-13.62-5.75a22.03 22.03 0 00-.37 0 18.33 18.33 0 00-13.25 5.75 22.84 22.84 0 00-.03.02 18.97 18.97 0 00-5.6 13.73 18.3 18.3 0 001.46 7.3 19.84 19.84 0 004.29 6.2 23.95 23.95 0 00.18.18 18.44 18.44 0 0013.32 5.57 22.03 22.03 0 00.37 0 18.33 18.33 0 0013.25-5.75 23.76 23.76 0 00.03-.02zM303.25 22.5q0 7.75-5.5 13.5t-13.5 5.75a18.44 18.44 0 01-13.32-5.57 23.95 23.95 0 01-.18-.18 19.84 19.84 0 01-4.29-6.2 18.3 18.3 0 01-1.46-7.3 17.91 17.91 0 015.4-13.15 21.6 21.6 0 01.35-.35q5.75-5.5 13.75-5.5 7.75 0 13.25 5.5t5.5 13.5zm-235.5 123v-5.75q-5.25 0-11.5.5t-12 2.5a24.48 24.48 0 00-5.51 2.69 20.4 20.4 0 00-3.87 3.31q-3.38 3.74-3.6 10.09a25.91 25.91 0 00-.02.91q0 5.59 4.37 8.7a12.85 12.85 0 00.26.18 18.03 18.03 0 006.14 2.7 16.88 16.88 0 003.73.42 20.35 20.35 0 006.1-.88 17.04 17.04 0 005.77-3.12 26.12 26.12 0 007.34-9.74 30.34 30.34 0 00.17-.38 32.64 32.64 0 002.23-7.52 28.1 28.1 0 00.39-4.61zm867.75 0v-5.75q-5.25 0-11.5.5t-12 2.5a24.48 24.48 0 00-5.51 2.69 20.4 20.4 0 00-3.87 3.31q-3.38 3.74-3.6 10.09a25.91 25.91 0 00-.02.91q0 5.59 4.37 8.7a12.85 12.85 0 00.25.18 18.03 18.03 0 006.15 2.7 16.88 16.88 0 003.73.42 20.35 20.35 0 006.1-.88 17.04 17.04 0 005.77-3.12 26.12 26.12 0 007.34-9.74 30.34 30.34 0 00.16-.38 32.64 32.64 0 002.25-7.52 28.1 28.1 0 00.38-4.61z" font-size="12" vector-effect="non-scaling-stroke"/>
</svg>
